<mxfile host="app.diagrams.net" modified="2023-11-04T17:55:05.536Z" agent="Mozilla/5.0 (Windows NT 10.0; Win64; x64) AppleWebKit/537.36 (KHTML, like Gecko) Chrome/119.0.0.0 Safari/537.36 Edg/119.0.0.0" etag="sHHhr-VSmTxxWf71zdoT" version="22.0.8" type="device">
  <diagram name="Page-1" id="HEmn1sXpL1p5A6LjlQDP">
    <mxGraphModel dx="1026" dy="547" grid="1" gridSize="10" guides="1" tooltips="1" connect="1" arrows="1" fold="1" page="1" pageScale="1" pageWidth="850" pageHeight="1100" math="0" shadow="0">
      <root>
        <mxCell id="0" />
        <mxCell id="1" parent="0" />
        <mxCell id="vJ7gYrHKeLSSvxbVJYbK-1" value="Người dùng" style="swimlane;startSize=20;whiteSpace=wrap;html=1;" vertex="1" parent="1">
          <mxGeometry x="40" y="30" width="440" height="770" as="geometry">
            <mxRectangle x="120" y="80" width="110" height="30" as="alternateBounds" />
          </mxGeometry>
        </mxCell>
        <mxCell id="vJ7gYrHKeLSSvxbVJYbK-2" value="" style="ellipse;html=1;shape=startState;fillColor=#000000;strokeColor=#ff0000;" vertex="1" parent="vJ7gYrHKeLSSvxbVJYbK-1">
          <mxGeometry x="200" y="30" width="30" height="30" as="geometry" />
        </mxCell>
        <mxCell id="vJ7gYrHKeLSSvxbVJYbK-3" value="" style="edgeStyle=orthogonalEdgeStyle;html=1;verticalAlign=bottom;endArrow=open;endSize=8;strokeColor=#ff0000;rounded=0;" edge="1" parent="vJ7gYrHKeLSSvxbVJYbK-1" source="vJ7gYrHKeLSSvxbVJYbK-2">
          <mxGeometry relative="1" as="geometry">
            <mxPoint x="215" y="80" as="targetPoint" />
          </mxGeometry>
        </mxCell>
        <mxCell id="vJ7gYrHKeLSSvxbVJYbK-4" value="Chọn quản lý sản phẩm" style="rounded=1;whiteSpace=wrap;html=1;arcSize=40;fontColor=#000000;fillColor=#ffffc0;strokeColor=#ff0000;" vertex="1" parent="vJ7gYrHKeLSSvxbVJYbK-1">
          <mxGeometry x="155" y="80" width="120" height="40" as="geometry" />
        </mxCell>
        <mxCell id="vJ7gYrHKeLSSvxbVJYbK-5" value="" style="shape=line;html=1;strokeWidth=6;strokeColor=#ff0000;direction=south;" vertex="1" parent="vJ7gYrHKeLSSvxbVJYbK-1">
          <mxGeometry x="80" y="150" width="10" height="360" as="geometry" />
        </mxCell>
        <mxCell id="vJ7gYrHKeLSSvxbVJYbK-6" value="" style="edgeStyle=orthogonalEdgeStyle;html=1;verticalAlign=bottom;endArrow=open;endSize=8;strokeColor=#ff0000;rounded=0;exitX=0;exitY=0.5;exitDx=0;exitDy=0;" edge="1" parent="vJ7gYrHKeLSSvxbVJYbK-1" source="vJ7gYrHKeLSSvxbVJYbK-4">
          <mxGeometry relative="1" as="geometry">
            <mxPoint x="82" y="325" as="targetPoint" />
            <mxPoint x="540" y="190" as="sourcePoint" />
            <Array as="points">
              <mxPoint x="20" y="100" />
              <mxPoint x="20" y="325" />
            </Array>
          </mxGeometry>
        </mxCell>
        <mxCell id="vJ7gYrHKeLSSvxbVJYbK-7" value="Chọn thêm sản phẩm" style="rounded=1;whiteSpace=wrap;html=1;arcSize=40;fontColor=#000000;fillColor=#ffffc0;strokeColor=#ff0000;" vertex="1" parent="vJ7gYrHKeLSSvxbVJYbK-1">
          <mxGeometry x="120" y="170" width="120" height="40" as="geometry" />
        </mxCell>
        <mxCell id="vJ7gYrHKeLSSvxbVJYbK-8" value="Chọn sửa sản phẩm" style="rounded=1;whiteSpace=wrap;html=1;arcSize=40;fontColor=#000000;fillColor=#ffffc0;strokeColor=#ff0000;" vertex="1" parent="vJ7gYrHKeLSSvxbVJYbK-1">
          <mxGeometry x="120" y="310" width="120" height="40" as="geometry" />
        </mxCell>
        <mxCell id="vJ7gYrHKeLSSvxbVJYbK-9" value="Chọn xuất sản phẩm" style="rounded=1;whiteSpace=wrap;html=1;arcSize=40;fontColor=#000000;fillColor=#ffffc0;strokeColor=#ff0000;" vertex="1" parent="vJ7gYrHKeLSSvxbVJYbK-1">
          <mxGeometry x="120" y="450" width="120" height="40" as="geometry" />
        </mxCell>
        <mxCell id="vJ7gYrHKeLSSvxbVJYbK-10" value="" style="edgeStyle=orthogonalEdgeStyle;html=1;verticalAlign=bottom;endArrow=open;endSize=8;strokeColor=#ff0000;rounded=0;exitX=0.119;exitY=0.125;exitDx=0;exitDy=0;exitPerimeter=0;" edge="1" parent="vJ7gYrHKeLSSvxbVJYbK-1" source="vJ7gYrHKeLSSvxbVJYbK-5">
          <mxGeometry relative="1" as="geometry">
            <mxPoint x="120" y="193" as="targetPoint" />
            <mxPoint x="230" y="140" as="sourcePoint" />
          </mxGeometry>
        </mxCell>
        <mxCell id="vJ7gYrHKeLSSvxbVJYbK-11" value="" style="edgeStyle=orthogonalEdgeStyle;html=1;verticalAlign=bottom;endArrow=open;endSize=8;strokeColor=#ff0000;rounded=0;exitX=0.119;exitY=0.125;exitDx=0;exitDy=0;exitPerimeter=0;" edge="1" parent="vJ7gYrHKeLSSvxbVJYbK-1">
          <mxGeometry relative="1" as="geometry">
            <mxPoint x="120" y="329.63" as="targetPoint" />
            <mxPoint x="89" y="329.63" as="sourcePoint" />
          </mxGeometry>
        </mxCell>
        <mxCell id="vJ7gYrHKeLSSvxbVJYbK-12" value="" style="edgeStyle=orthogonalEdgeStyle;html=1;verticalAlign=bottom;endArrow=open;endSize=8;strokeColor=#ff0000;rounded=0;exitX=0.119;exitY=0.125;exitDx=0;exitDy=0;exitPerimeter=0;" edge="1" parent="vJ7gYrHKeLSSvxbVJYbK-1">
          <mxGeometry relative="1" as="geometry">
            <mxPoint x="121" y="469.38" as="targetPoint" />
            <mxPoint x="90" y="469.38" as="sourcePoint" />
          </mxGeometry>
        </mxCell>
        <mxCell id="vJ7gYrHKeLSSvxbVJYbK-13" value="Nhập thông tin sản phẩm" style="rounded=1;whiteSpace=wrap;html=1;arcSize=40;fontColor=#000000;fillColor=#ffffc0;strokeColor=#ff0000;" vertex="1" parent="vJ7gYrHKeLSSvxbVJYbK-1">
          <mxGeometry x="280" y="170" width="120" height="40" as="geometry" />
        </mxCell>
        <mxCell id="vJ7gYrHKeLSSvxbVJYbK-14" value="" style="edgeStyle=orthogonalEdgeStyle;html=1;verticalAlign=bottom;endArrow=open;endSize=8;strokeColor=#ff0000;rounded=0;exitX=1;exitY=0.5;exitDx=0;exitDy=0;entryX=0;entryY=0.5;entryDx=0;entryDy=0;" edge="1" parent="vJ7gYrHKeLSSvxbVJYbK-1" source="vJ7gYrHKeLSSvxbVJYbK-7" target="vJ7gYrHKeLSSvxbVJYbK-13">
          <mxGeometry relative="1" as="geometry">
            <mxPoint x="130" y="203" as="targetPoint" />
            <mxPoint x="99" y="203" as="sourcePoint" />
          </mxGeometry>
        </mxCell>
        <mxCell id="vJ7gYrHKeLSSvxbVJYbK-15" value="" style="edgeStyle=orthogonalEdgeStyle;html=1;verticalAlign=bottom;endArrow=open;endSize=8;strokeColor=#ff0000;rounded=0;entryX=0;entryY=0.5;entryDx=0;entryDy=0;exitX=1;exitY=0.5;exitDx=0;exitDy=0;" edge="1" parent="vJ7gYrHKeLSSvxbVJYbK-1" source="vJ7gYrHKeLSSvxbVJYbK-8" target="vJ7gYrHKeLSSvxbVJYbK-16">
          <mxGeometry relative="1" as="geometry">
            <mxPoint x="140" y="343" as="targetPoint" />
            <mxPoint x="250" y="330" as="sourcePoint" />
            <Array as="points">
              <mxPoint x="270" y="331" />
            </Array>
          </mxGeometry>
        </mxCell>
        <mxCell id="vJ7gYrHKeLSSvxbVJYbK-16" value="Cập nhật thông tin" style="rounded=1;whiteSpace=wrap;html=1;arcSize=40;fontColor=#000000;fillColor=#ffffc0;strokeColor=#ff0000;" vertex="1" parent="vJ7gYrHKeLSSvxbVJYbK-1">
          <mxGeometry x="290" y="310" width="120" height="40" as="geometry" />
        </mxCell>
        <mxCell id="vJ7gYrHKeLSSvxbVJYbK-23" value="Hệ thống" style="swimlane;startSize=20;whiteSpace=wrap;html=1;" vertex="1" parent="1">
          <mxGeometry x="530" y="30" width="430" height="770" as="geometry">
            <mxRectangle x="400" y="80" width="90" height="30" as="alternateBounds" />
          </mxGeometry>
        </mxCell>
        <mxCell id="vJ7gYrHKeLSSvxbVJYbK-24" value="" style="ellipse;html=1;shape=endState;fillColor=#000000;strokeColor=#ff0000;" vertex="1" parent="vJ7gYrHKeLSSvxbVJYbK-23">
          <mxGeometry x="390" y="315" width="30" height="30" as="geometry" />
        </mxCell>
        <mxCell id="vJ7gYrHKeLSSvxbVJYbK-25" value="Kiểm tra" style="rhombus;whiteSpace=wrap;html=1;fontColor=#000000;fillColor=#ffffc0;strokeColor=#ff0000;" vertex="1" parent="vJ7gYrHKeLSSvxbVJYbK-23">
          <mxGeometry x="90" y="170" width="80" height="40" as="geometry" />
        </mxCell>
        <mxCell id="vJ7gYrHKeLSSvxbVJYbK-26" value="Đúng" style="edgeStyle=orthogonalEdgeStyle;html=1;align=left;verticalAlign=bottom;endArrow=open;endSize=8;strokeColor=#ff0000;rounded=0;entryX=0;entryY=0.5;entryDx=0;entryDy=0;exitX=1;exitY=0.5;exitDx=0;exitDy=0;" edge="1" parent="vJ7gYrHKeLSSvxbVJYbK-23" source="vJ7gYrHKeLSSvxbVJYbK-25" target="vJ7gYrHKeLSSvxbVJYbK-27">
          <mxGeometry x="-1" y="10" relative="1" as="geometry">
            <mxPoint x="130" y="330" as="targetPoint" />
            <Array as="points">
              <mxPoint x="200" y="190" />
            </Array>
            <mxPoint as="offset" />
          </mxGeometry>
        </mxCell>
        <mxCell id="vJ7gYrHKeLSSvxbVJYbK-27" value="Lưu sản phẩm" style="rounded=1;whiteSpace=wrap;html=1;arcSize=40;fontColor=#000000;fillColor=#ffffc0;strokeColor=#ff0000;" vertex="1" parent="vJ7gYrHKeLSSvxbVJYbK-23">
          <mxGeometry x="200" y="170" width="120" height="40" as="geometry" />
        </mxCell>
        <mxCell id="vJ7gYrHKeLSSvxbVJYbK-28" value="" style="edgeStyle=orthogonalEdgeStyle;rounded=0;orthogonalLoop=1;jettySize=auto;html=1;" edge="1" parent="vJ7gYrHKeLSSvxbVJYbK-23">
          <mxGeometry relative="1" as="geometry">
            <mxPoint x="-80" y="330" as="sourcePoint" />
            <mxPoint x="100" y="330" as="targetPoint" />
          </mxGeometry>
        </mxCell>
        <mxCell id="vJ7gYrHKeLSSvxbVJYbK-29" value="Kiểm tra" style="rhombus;whiteSpace=wrap;html=1;fontColor=#000000;fillColor=#ffffc0;strokeColor=#ff0000;" vertex="1" parent="vJ7gYrHKeLSSvxbVJYbK-23">
          <mxGeometry x="100" y="310" width="80" height="40" as="geometry" />
        </mxCell>
        <mxCell id="vJ7gYrHKeLSSvxbVJYbK-30" value="không hợp lệ&lt;br&gt;" style="edgeStyle=orthogonalEdgeStyle;html=1;align=left;verticalAlign=top;endArrow=open;endSize=8;strokeColor=#ff0000;rounded=0;entryX=0.5;entryY=0;entryDx=0;entryDy=0;" edge="1" parent="vJ7gYrHKeLSSvxbVJYbK-23" source="vJ7gYrHKeLSSvxbVJYbK-29">
          <mxGeometry x="-0.7726" y="-10" relative="1" as="geometry">
            <mxPoint x="-140" y="310" as="targetPoint" />
            <Array as="points">
              <mxPoint x="140" y="270" />
              <mxPoint x="-140" y="270" />
            </Array>
            <mxPoint y="1" as="offset" />
          </mxGeometry>
        </mxCell>
        <mxCell id="vJ7gYrHKeLSSvxbVJYbK-31" value="Lưu sản phẩm" style="rounded=1;whiteSpace=wrap;html=1;arcSize=40;fontColor=#000000;fillColor=#ffffc0;strokeColor=#ff0000;" vertex="1" parent="vJ7gYrHKeLSSvxbVJYbK-23">
          <mxGeometry x="210" y="310" width="120" height="40" as="geometry" />
        </mxCell>
        <mxCell id="vJ7gYrHKeLSSvxbVJYbK-32" value="Đúng" style="edgeStyle=orthogonalEdgeStyle;html=1;align=left;verticalAlign=bottom;endArrow=open;endSize=8;strokeColor=#ff0000;rounded=0;entryX=0;entryY=0.5;entryDx=0;entryDy=0;exitX=1;exitY=0.5;exitDx=0;exitDy=0;" edge="1" parent="vJ7gYrHKeLSSvxbVJYbK-23">
          <mxGeometry x="-1" y="10" relative="1" as="geometry">
            <mxPoint x="210" y="329.38" as="targetPoint" />
            <mxPoint x="180" y="329.38" as="sourcePoint" />
            <Array as="points">
              <mxPoint x="210" y="329.38" />
            </Array>
            <mxPoint as="offset" />
          </mxGeometry>
        </mxCell>
        <mxCell id="vJ7gYrHKeLSSvxbVJYbK-33" value="Lưu thông tin xuất hàng" style="rounded=1;whiteSpace=wrap;html=1;arcSize=40;fontColor=#000000;fillColor=#ffffc0;strokeColor=#ff0000;" vertex="1" parent="vJ7gYrHKeLSSvxbVJYbK-23">
          <mxGeometry x="190" y="410" width="120" height="40" as="geometry" />
        </mxCell>
        <mxCell id="vJ7gYrHKeLSSvxbVJYbK-34" value="" style="edgeStyle=orthogonalEdgeStyle;html=1;align=left;verticalAlign=bottom;endArrow=open;endSize=8;strokeColor=#ff0000;rounded=0;exitX=1;exitY=0.5;exitDx=0;exitDy=0;" edge="1" parent="vJ7gYrHKeLSSvxbVJYbK-23" source="vJ7gYrHKeLSSvxbVJYbK-27">
          <mxGeometry x="-1" y="10" relative="1" as="geometry">
            <mxPoint x="405" y="315" as="targetPoint" />
            <mxPoint x="340" y="189.29" as="sourcePoint" />
            <Array as="points">
              <mxPoint x="405" y="189" />
            </Array>
            <mxPoint as="offset" />
          </mxGeometry>
        </mxCell>
        <mxCell id="vJ7gYrHKeLSSvxbVJYbK-35" value="" style="edgeStyle=orthogonalEdgeStyle;html=1;align=left;verticalAlign=bottom;endArrow=open;endSize=8;strokeColor=#ff0000;rounded=0;entryX=0;entryY=0.5;entryDx=0;entryDy=0;exitX=1;exitY=0.5;exitDx=0;exitDy=0;" edge="1" parent="vJ7gYrHKeLSSvxbVJYbK-23" target="vJ7gYrHKeLSSvxbVJYbK-24">
          <mxGeometry x="-1" y="10" relative="1" as="geometry">
            <mxPoint x="380" y="329.28999999999996" as="targetPoint" />
            <mxPoint x="330" y="330" as="sourcePoint" />
            <Array as="points">
              <mxPoint x="380" y="329" />
            </Array>
            <mxPoint as="offset" />
          </mxGeometry>
        </mxCell>
        <mxCell id="vJ7gYrHKeLSSvxbVJYbK-36" value="" style="edgeStyle=orthogonalEdgeStyle;html=1;align=left;verticalAlign=bottom;endArrow=open;endSize=8;strokeColor=#ff0000;rounded=0;entryX=0.5;entryY=1;entryDx=0;entryDy=0;exitX=1;exitY=0.482;exitDx=0;exitDy=0;exitPerimeter=0;" edge="1" parent="vJ7gYrHKeLSSvxbVJYbK-23" source="vJ7gYrHKeLSSvxbVJYbK-33" target="vJ7gYrHKeLSSvxbVJYbK-24">
          <mxGeometry x="-1" y="10" relative="1" as="geometry">
            <mxPoint x="380" y="609.29" as="targetPoint" />
            <mxPoint x="330" y="610" as="sourcePoint" />
            <Array as="points" />
            <mxPoint as="offset" />
          </mxGeometry>
        </mxCell>
        <mxCell id="vJ7gYrHKeLSSvxbVJYbK-43" value="" style="shape=line;html=1;strokeWidth=6;strokeColor=#ff0000;direction=south;" vertex="1" parent="vJ7gYrHKeLSSvxbVJYbK-23">
          <mxGeometry x="60" y="420" width="10" height="100" as="geometry" />
        </mxCell>
        <mxCell id="vJ7gYrHKeLSSvxbVJYbK-44" value="" style="edgeStyle=orthogonalEdgeStyle;html=1;verticalAlign=bottom;endArrow=open;endSize=8;strokeColor=#ff0000;rounded=0;exitX=0.25;exitY=0.5;exitDx=0;exitDy=0;exitPerimeter=0;entryX=0;entryY=0.625;entryDx=0;entryDy=0;entryPerimeter=0;" edge="1" source="vJ7gYrHKeLSSvxbVJYbK-43" parent="vJ7gYrHKeLSSvxbVJYbK-23" target="vJ7gYrHKeLSSvxbVJYbK-33">
          <mxGeometry relative="1" as="geometry">
            <mxPoint x="180" y="435" as="targetPoint" />
            <Array as="points">
              <mxPoint x="130" y="445" />
              <mxPoint x="130" y="436" />
            </Array>
          </mxGeometry>
        </mxCell>
        <mxCell id="vJ7gYrHKeLSSvxbVJYbK-46" value="Cập nhật số lượng sản phẩm" style="rounded=1;whiteSpace=wrap;html=1;arcSize=40;fontColor=#000000;fillColor=#ffffc0;strokeColor=#ff0000;" vertex="1" parent="vJ7gYrHKeLSSvxbVJYbK-23">
          <mxGeometry x="190" y="500" width="120" height="40" as="geometry" />
        </mxCell>
        <mxCell id="vJ7gYrHKeLSSvxbVJYbK-47" value="" style="edgeStyle=orthogonalEdgeStyle;html=1;verticalAlign=bottom;endArrow=open;endSize=8;strokeColor=#ff0000;rounded=0;exitX=0.25;exitY=0.5;exitDx=0;exitDy=0;exitPerimeter=0;entryX=0;entryY=0.5;entryDx=0;entryDy=0;" edge="1" parent="vJ7gYrHKeLSSvxbVJYbK-23" target="vJ7gYrHKeLSSvxbVJYbK-46">
          <mxGeometry relative="1" as="geometry">
            <mxPoint x="185" y="495" as="targetPoint" />
            <mxPoint x="70" y="505" as="sourcePoint" />
            <Array as="points">
              <mxPoint x="70" y="510" />
              <mxPoint x="135" y="510" />
              <mxPoint x="135" y="520" />
              <mxPoint x="190" y="520" />
            </Array>
          </mxGeometry>
        </mxCell>
        <mxCell id="vJ7gYrHKeLSSvxbVJYbK-37" value="" style="edgeStyle=orthogonalEdgeStyle;html=1;verticalAlign=bottom;endArrow=open;endSize=8;strokeColor=#ff0000;rounded=0;entryX=0.499;entryY=0.433;entryDx=0;entryDy=0;entryPerimeter=0;" edge="1" parent="1">
          <mxGeometry relative="1" as="geometry">
            <mxPoint x="579.6399999999999" y="259.33000000000004" as="targetPoint" />
            <mxPoint x="580" y="260" as="sourcePoint" />
          </mxGeometry>
        </mxCell>
        <mxCell id="vJ7gYrHKeLSSvxbVJYbK-38" value="" style="edgeStyle=orthogonalEdgeStyle;rounded=0;orthogonalLoop=1;jettySize=auto;html=1;" edge="1" parent="1" source="vJ7gYrHKeLSSvxbVJYbK-13">
          <mxGeometry relative="1" as="geometry">
            <mxPoint x="620" y="220" as="targetPoint" />
          </mxGeometry>
        </mxCell>
        <mxCell id="vJ7gYrHKeLSSvxbVJYbK-39" value="Không hợp lê" style="edgeStyle=orthogonalEdgeStyle;html=1;align=left;verticalAlign=top;endArrow=open;endSize=8;strokeColor=#ff0000;rounded=0;entryX=0.5;entryY=0;entryDx=0;entryDy=0;" edge="1" parent="1" source="vJ7gYrHKeLSSvxbVJYbK-25" target="vJ7gYrHKeLSSvxbVJYbK-13">
          <mxGeometry x="-0.7726" y="-10" relative="1" as="geometry">
            <mxPoint x="650" y="130" as="targetPoint" />
            <Array as="points">
              <mxPoint x="660" y="170" />
              <mxPoint x="380" y="170" />
            </Array>
            <mxPoint y="1" as="offset" />
          </mxGeometry>
        </mxCell>
        <mxCell id="vJ7gYrHKeLSSvxbVJYbK-42" value="" style="edgeStyle=orthogonalEdgeStyle;rounded=0;orthogonalLoop=1;jettySize=auto;html=1;" edge="1" parent="1" source="vJ7gYrHKeLSSvxbVJYbK-9">
          <mxGeometry relative="1" as="geometry">
            <mxPoint x="590" y="500" as="targetPoint" />
          </mxGeometry>
        </mxCell>
      </root>
    </mxGraphModel>
  </diagram>
</mxfile>
